<svg xmlns="http://www.w3.org/2000/svg" xmlns:xlink="http://www.w3.org/1999/xlink" width="500" zoomAndPan="magnify" viewBox="0 0 375 374.999991" height="500" preserveAspectRatio="xMidYMid meet" version="1.0"><defs><clipPath id="057c002d91"><path d="M 0 53.523438 L 375 53.523438 L 375 321.273438 L 0 321.273438 Z M 0 53.523438 " clip-rule="nonzero"/></clipPath></defs><g clip-path="url(#057c002d91)"><path fill="#23bdff" d="M 353.480469 53.523438 C 351.097656 53.523438 348.714844 53.523438 346.335938 53.523438 L 23.605469 53.523438 C 13.183594 53.523438 3.359375 59.472656 0.976562 70.183594 C 0.382812 74.644531 0.0859375 79.109375 0.382812 83.570312 L 0.382812 291.523438 C 0.0859375 296.582031 0.382812 301.636719 1.574219 306.398438 C 4.847656 316.214844 14.078125 321.273438 23.902344 321.273438 L 353.480469 321.273438 C 354.074219 321.273438 354.671875 320.976562 355.265625 320.675781 C 367.175781 319.488281 374.914062 309.671875 374.914062 297.472656 L 374.914062 76.726562 C 374.914062 64.234375 366.28125 53.820312 353.480469 53.523438 Z M 7.824219 74.941406 C 8.121094 65.71875 15.269531 60.664062 23.902344 60.664062 L 322.515625 60.664062 C 332.640625 60.664062 343.058594 60.363281 353.183594 60.664062 C 362.113281 60.960938 367.769531 67.804688 367.769531 76.429688 L 367.769531 102.3125 L 49.207031 102.3125 C 35.214844 102.3125 21.519531 101.71875 7.824219 102.3125 C 7.527344 93.386719 7.527344 84.164062 7.824219 74.941406 Z M 367.472656 299.257812 C 367.472656 306.992188 361.21875 313.238281 353.183594 313.539062 C 352.882812 313.539062 352.585938 313.539062 352.585938 313.539062 L 25.390625 313.539062 C 19.136719 313.539062 12.886719 312.644531 9.613281 306.398438 C 7.230469 301.933594 7.824219 296.878906 7.824219 291.820312 L 7.824219 113.023438 C 7.824219 112.128906 7.824219 110.941406 7.824219 110.046875 L 326.089844 110.046875 C 340.082031 110.046875 353.777344 110.644531 367.472656 110.046875 L 367.472656 296.28125 C 367.472656 297.175781 367.472656 298.363281 367.472656 299.257812 Z M 367.472656 299.257812 " fill-opacity="1" fill-rule="nonzero"/></g><path fill="#23bdff" d="M 32.832031 85.058594 C 32.832031 84.761719 32.535156 84.761719 32.832031 85.058594 Z M 32.832031 85.058594 " fill-opacity="1" fill-rule="nonzero"/><path fill="#23bdff" d="M 47.421875 91.898438 C 49.507812 89.519531 50.398438 86.84375 50.398438 83.570312 C 50.398438 82.976562 50.398438 82.675781 50.398438 82.082031 C 49.804688 77.324219 46.527344 73.457031 42.0625 71.671875 C 37.300781 69.886719 31.644531 71.371094 28.367188 75.238281 C 23.902344 80.59375 24.496094 88.332031 29.558594 93.089844 C 34.917969 97.550781 42.660156 96.957031 47.421875 91.898438 Z M 42.957031 82.675781 C 42.957031 82.675781 42.957031 82.976562 42.957031 82.675781 C 42.957031 82.976562 42.957031 82.976562 42.957031 82.976562 C 42.957031 82.976562 42.957031 82.976562 42.957031 82.675781 Z M 32.535156 82.675781 C 32.535156 82.378906 32.535156 82.378906 32.535156 82.082031 C 32.535156 81.785156 32.832031 81.488281 32.832031 80.894531 L 33.132812 80.296875 L 33.429688 79.703125 C 33.726562 79.40625 34.023438 79.109375 34.324219 78.808594 L 34.621094 78.808594 C 34.324219 79.109375 34.621094 78.808594 34.917969 78.808594 C 35.214844 78.511719 35.8125 78.511719 36.109375 78.214844 C 36.109375 78.214844 35.214844 78.511719 35.8125 78.214844 L 36.40625 77.917969 L 37 77.917969 C 37 77.917969 37 77.917969 37.300781 77.917969 C 37.300781 77.917969 37.597656 77.917969 37.597656 77.917969 L 38.492188 77.917969 L 39.980469 78.214844 C 40.574219 78.511719 40.574219 78.511719 40.574219 78.511719 L 41.171875 79.109375 C 40.871094 78.808594 40.574219 78.808594 40.871094 79.109375 L 41.765625 80 C 41.765625 80.296875 42.0625 80.296875 42.0625 80.59375 L 42.359375 81.191406 C 42.359375 81.488281 42.359375 81.785156 42.660156 81.785156 C 42.660156 82.082031 42.359375 82.378906 42.359375 82.675781 C 42.359375 82.976562 42.359375 82.976562 42.359375 83.273438 C 42.359375 83.570312 42.0625 84.164062 42.0625 84.460938 C 42.0625 84.460938 42.0625 84.761719 42.0625 84.761719 C 42.0625 84.761719 42.0625 84.761719 42.0625 85.058594 C 41.765625 85.355469 41.46875 85.949219 41.46875 86.246094 C 41.46875 86.246094 41.171875 86.546875 41.171875 86.546875 C 41.171875 86.546875 40.871094 86.84375 40.871094 86.84375 L 40.574219 86.84375 C 40.277344 87.140625 40.277344 87.140625 40.574219 86.84375 C 40.277344 87.140625 39.980469 87.140625 39.980469 87.4375 L 39.679688 87.734375 L 38.191406 88.332031 C 37.894531 88.332031 37.894531 88.332031 37.597656 88.332031 L 36.40625 88.332031 C 36.109375 88.332031 35.8125 88.332031 35.8125 88.03125 L 35.214844 87.734375 C 34.621094 87.4375 35.511719 87.734375 35.511719 87.734375 C 35.511719 87.734375 34.621094 87.140625 34.621094 87.140625 L 34.023438 86.84375 C 34.023438 86.84375 33.132812 85.949219 33.132812 85.949219 L 32.832031 85.652344 L 32.832031 85.058594 C 32.832031 85.058594 32.832031 85.355469 32.832031 85.355469 C 32.832031 85.355469 32.535156 84.460938 32.535156 84.164062 Z M 32.535156 82.675781 " fill-opacity="1" fill-rule="nonzero"/><path fill="#23bdff" d="M 77.195312 91.304688 C 78.980469 89.222656 79.875 86.546875 80.171875 83.867188 C 80.171875 83.570312 80.171875 83.570312 80.171875 83.273438 C 80.171875 83.273438 80.171875 82.976562 80.171875 82.976562 C 80.171875 77.621094 76.898438 72.859375 71.835938 71.074219 C 67.070312 69.289062 61.414062 70.777344 58.140625 74.644531 C 53.675781 80 54.269531 87.734375 59.332031 92.496094 C 64.691406 97.253906 72.429688 96.660156 77.195312 91.304688 Z M 62.605469 82.675781 C 62.605469 82.378906 62.605469 82.378906 62.605469 82.082031 C 62.605469 81.785156 62.902344 81.488281 62.902344 80.894531 L 63.203125 80.296875 L 63.5 79.703125 C 63.796875 79.40625 64.09375 79.109375 64.390625 78.808594 L 64.691406 78.808594 C 64.691406 78.808594 64.691406 78.808594 64.988281 78.808594 C 65.285156 78.511719 65.878906 78.511719 66.179688 78.214844 C 66.179688 78.214844 65.285156 78.511719 65.878906 78.214844 L 66.476562 77.917969 L 67.070312 77.917969 C 67.070312 77.917969 67.070312 77.917969 67.371094 77.917969 C 67.371094 77.917969 67.667969 77.917969 67.667969 77.917969 L 68.261719 77.917969 L 69.75 78.214844 C 70.347656 78.511719 70.347656 78.511719 70.347656 78.511719 C 70.347656 78.511719 70.644531 78.511719 70.644531 78.808594 C 70.644531 78.808594 70.644531 78.808594 70.941406 79.109375 L 71.835938 80 C 71.835938 80.296875 72.132812 80.296875 72.132812 80.59375 L 72.429688 81.191406 C 72.726562 81.785156 72.726562 82.082031 72.726562 82.378906 C 72.726562 82.378906 72.726562 82.378906 72.726562 82.675781 C 72.726562 82.675781 72.726562 82.675781 72.726562 82.976562 C 72.726562 83.273438 72.726562 83.273438 72.726562 83.570312 C 72.726562 83.867188 72.429688 84.460938 72.429688 84.761719 C 72.429688 84.761719 72.429688 85.058594 72.429688 85.058594 C 72.429688 85.058594 72.429688 85.058594 72.429688 85.355469 L 71.835938 86.546875 C 71.835938 86.546875 71.539062 86.84375 71.539062 86.84375 L 71.238281 87.140625 C 70.941406 87.4375 70.941406 87.4375 71.238281 87.140625 C 70.941406 87.4375 70.644531 87.4375 70.644531 87.734375 L 70.347656 88.03125 L 68.558594 88.332031 C 68.261719 88.332031 68.261719 88.332031 67.964844 88.332031 L 65.878906 88.332031 L 65.285156 88.03125 C 64.691406 87.734375 65.582031 88.03125 65.582031 88.03125 C 65.582031 88.03125 64.691406 87.4375 64.691406 87.4375 C 64.691406 87.4375 64.390625 87.140625 64.09375 87.140625 C 64.09375 87.140625 63.203125 86.246094 63.203125 86.246094 L 62.902344 85.949219 L 63.203125 85.652344 L 63.203125 85.355469 C 63.203125 85.058594 62.902344 85.058594 63.203125 85.355469 C 63.203125 85.058594 62.902344 84.761719 62.902344 84.460938 C 62.902344 84.460938 62.902344 84.164062 62.902344 83.867188 C 62.605469 83.570312 62.605469 82.976562 62.605469 82.675781 Z M 62.605469 82.675781 " fill-opacity="1" fill-rule="nonzero"/><path fill="#23bdff" d="M 62.605469 82.675781 C 62.902344 81.785156 62.605469 82.378906 62.605469 82.675781 Z M 62.605469 82.675781 " fill-opacity="1" fill-rule="nonzero"/><path fill="#23bdff" d="M 107.859375 91.898438 C 109.945312 89.519531 110.835938 86.84375 110.835938 83.570312 C 110.835938 82.976562 110.835938 82.675781 110.835938 82.082031 C 109.945312 77.324219 106.964844 73.457031 102.5 71.671875 C 97.738281 69.886719 92.082031 71.371094 88.804688 75.238281 C 84.339844 80.59375 84.933594 88.332031 89.996094 93.089844 C 95.058594 97.851562 103.097656 96.957031 107.859375 91.898438 Z M 103.394531 82.675781 C 103.394531 82.675781 103.394531 82.976562 103.394531 82.675781 C 103.394531 82.976562 103.394531 82.976562 103.394531 82.976562 C 103.394531 82.976562 103.394531 82.976562 103.394531 82.675781 Z M 92.972656 82.675781 C 92.972656 82.675781 92.972656 82.378906 92.972656 82.082031 C 92.972656 81.785156 93.269531 81.191406 93.269531 80.894531 L 93.570312 80.296875 L 93.867188 79.703125 C 94.164062 79.40625 94.460938 79.109375 94.761719 78.808594 L 95.058594 78.808594 C 94.761719 79.109375 95.058594 78.808594 95.355469 78.808594 C 95.652344 78.511719 96.25 78.511719 96.546875 78.214844 C 96.546875 78.214844 95.652344 78.511719 96.25 78.214844 L 96.84375 77.917969 L 97.4375 77.917969 C 97.4375 77.917969 97.4375 77.917969 97.738281 77.917969 C 97.738281 77.917969 98.035156 77.917969 98.035156 77.917969 L 99.226562 77.917969 L 100.714844 78.214844 C 101.308594 78.511719 101.308594 78.511719 101.308594 78.511719 L 101.605469 78.808594 C 101.605469 78.808594 101.605469 78.808594 101.90625 79.109375 L 102.796875 80 C 102.796875 80.296875 103.097656 80.296875 103.097656 80.59375 C 103.097656 80.894531 103.394531 80.894531 103.394531 81.191406 C 103.394531 81.488281 103.691406 81.785156 103.691406 82.082031 C 103.691406 82.378906 103.394531 82.675781 103.394531 82.976562 C 103.394531 83.273438 103.394531 83.273438 103.394531 83.570312 C 103.394531 83.867188 103.097656 84.460938 103.097656 84.761719 C 103.097656 84.761719 103.097656 84.761719 103.097656 85.058594 C 102.796875 85.355469 102.5 85.949219 102.5 86.246094 C 102.5 86.246094 102.203125 86.546875 102.203125 86.546875 C 102.203125 86.546875 101.90625 86.84375 101.90625 86.84375 C 101.605469 87.140625 101.605469 87.140625 101.90625 86.84375 C 101.605469 87.140625 101.308594 87.140625 101.308594 87.4375 L 101.011719 87.734375 L 98.628906 88.332031 C 98.332031 88.332031 98.332031 88.332031 98.035156 88.332031 L 96.84375 88.332031 L 96.25 88.03125 L 95.652344 87.734375 C 95.058594 87.734375 95.949219 87.734375 95.949219 87.734375 C 95.949219 87.734375 95.058594 87.140625 95.058594 87.140625 L 94.460938 86.84375 C 94.460938 86.84375 93.867188 86.246094 93.570312 85.949219 L 93.269531 85.355469 L 93.570312 85.058594 C 93.570312 84.761719 93.269531 84.164062 93.269531 83.867188 L 93.269531 83.273438 C 92.972656 83.273438 92.972656 82.976562 92.972656 82.675781 Z M 92.972656 82.675781 " fill-opacity="1" fill-rule="nonzero"/><path fill="#23bdff" d="M 98.628906 88.332031 C 98.628906 88.03125 98.035156 88.332031 98.628906 88.332031 Z M 98.628906 88.332031 " fill-opacity="1" fill-rule="nonzero"/><path fill="#23bdff" d="M 92.972656 82.675781 C 93.269531 81.785156 92.972656 82.378906 92.972656 82.675781 Z M 92.972656 82.675781 " fill-opacity="1" fill-rule="nonzero"/><path fill="#23bdff" d="M 231.414062 173.414062 C 228.4375 169.84375 223.078125 175.199219 226.054688 178.769531 L 254.933594 211.792969 L 226.054688 244.816406 C 222.78125 248.386719 228.140625 253.738281 231.414062 250.171875 L 262.675781 214.46875 C 264.164062 212.984375 264.164062 210.601562 262.675781 209.113281 Z M 231.414062 173.414062 " fill-opacity="1" fill-rule="nonzero"/><path fill="#23bdff" d="M 143.882812 173.414062 L 112.921875 209.113281 C 111.433594 210.601562 111.433594 212.984375 112.921875 214.46875 L 143.882812 250.171875 C 147.160156 253.738281 152.21875 248.386719 149.242188 244.816406 L 120.363281 211.792969 L 149.242188 178.769531 C 152.519531 175.199219 147.160156 169.84375 143.882812 173.414062 Z M 143.882812 173.414062 " fill-opacity="1" fill-rule="nonzero"/><path fill="#23bdff" d="M 202.238281 174.011719 L 171.273438 236.484375 L 166.808594 245.410156 C 164.722656 249.574219 170.976562 253.441406 173.359375 249.277344 L 204.617188 186.804688 L 209.085938 177.878906 C 210.574219 173.710938 204.320312 169.84375 202.238281 174.011719 Z M 202.238281 174.011719 " fill-opacity="1" fill-rule="nonzero"/></svg>